#N canvas 552 386 450 300 10;
#X floatatom 128 31 5 0 0 0 - - -;
#X obj 93 124 +;
#X obj 125 124 -;
#X obj 158 124 *;
#X obj 191 124 /;
#X floatatom 170 31 5 0 0 0 - - -;
#X floatatom 93 215 5 0 0 0 - - -;
#X obj 223 124 pow;
#X floatatom 125 190 5 0 0 0 - - -;
#X floatatom 158 215 5 0 0 0 - - -;
#X floatatom 191 188 5 0 0 0 - - -;
#X floatatom 223 215 5 0 0 0 - - -;
#X text 229 31 inputs bang from right to left;
#X connect 0 0 1 0;
#X connect 0 0 2 0;
#X connect 0 0 3 0;
#X connect 0 0 4 0;
#X connect 0 0 7 0;
#X connect 1 0 6 0;
#X connect 2 0 8 0;
#X connect 3 0 9 0;
#X connect 4 0 10 0;
#X connect 5 0 1 1;
#X connect 5 0 2 1;
#X connect 5 0 3 1;
#X connect 5 0 4 1;
#X connect 5 0 7 1;
#X connect 7 0 11 0;
