#N canvas 577 138 674 619 10;
#X obj 347 539 dac~;
#X obj 274 267 *~ 0;
#X msg 316 235 0;
#X msg 369 235 1;
#X floatatom 429 115 5 0 0 0 - - -;
#X obj 430 262 *~ 0;
#X msg 472 230 0;
#X msg 525 230 1;
#X obj 505 521 *~ 0;
#X msg 547 489 0;
#X msg 600 489 1;
#X obj 505 360 random 880;
#X obj 37 291 osc~ 440;
#X obj 38 377 *~ 0;
#X msg 80 345 0;
#X msg 133 345 1;
#X obj 37 159 random 880;
#X obj 50 191 moses 440;
#X obj 37 80 metro 1000;
#X obj 37 34 bng 15 250 50 0 empty empty empty 17 7 0 10 -262144 -1
-1;
#X obj 193 353 osc~ 440;
#X obj 193 278 bng 15 250 50 0 empty empty empty 17 7 0 10 -262144
-1 -1;
#X obj 193 326 random 440;
#X obj 193 300 metro 500;
#X obj 520 412 + 110;
#X obj 505 461 osc~;
#X obj 505 324 metro 100;
#X obj 505 289 bng 15 250 50 0 empty empty empty 17 7 0 10 -262144
-1 -1;
#X obj 429 145 osc~;
#X obj 273 150 osc~ 220;
#X connect 1 0 0 0;
#X connect 1 0 0 1;
#X connect 2 0 1 1;
#X connect 3 0 1 1;
#X connect 4 0 28 0;
#X connect 5 0 0 1;
#X connect 5 0 0 0;
#X connect 6 0 5 1;
#X connect 7 0 5 1;
#X connect 8 0 0 1;
#X connect 9 0 8 1;
#X connect 10 0 8 1;
#X connect 11 0 24 0;
#X connect 12 0 13 0;
#X connect 13 0 0 0;
#X connect 14 0 13 1;
#X connect 15 0 13 1;
#X connect 16 0 12 0;
#X connect 16 0 17 0;
#X connect 18 0 16 0;
#X connect 19 0 18 0;
#X connect 20 0 0 1;
#X connect 21 0 23 0;
#X connect 22 0 20 0;
#X connect 23 0 22 0;
#X connect 24 0 25 0;
#X connect 25 0 8 0;
#X connect 26 0 11 0;
#X connect 27 0 26 0;
#X connect 28 0 5 0;
#X connect 29 0 1 0;
