#N canvas 745 58 692 502 10;
#X obj 180 311 osc~;
#X obj 295 311 osc~;
#X floatatom 234 190 5 0 0 0 - - -;
#X obj 180 254 * 400;
#X obj 295 253 * 600;
#X obj 228 278 print a;
#X obj 345 278 print b;
#X obj 228 440 dac~;
#X obj 237 387 *~ 1;
#X msg 302 374 0;
#X msg 303 399 1;
#X obj 234 44 bng 15 250 50 0 empty empty empty 17 7 0 10 -262144 -1
-1;
#X msg 267 54 0;
#X obj 234 81 f;
#X obj 234 118 + 1;
#X obj 234 161 mod 7;
#X connect 0 0 8 0;
#X connect 1 0 8 0;
#X connect 2 0 3 0;
#X connect 2 0 4 0;
#X connect 3 0 5 0;
#X connect 3 0 0 0;
#X connect 4 0 6 0;
#X connect 4 0 1 0;
#X connect 8 0 7 0;
#X connect 8 0 7 1;
#X connect 9 0 8 1;
#X connect 10 0 8 1;
#X connect 11 0 13 0;
#X connect 12 0 13 1;
#X connect 13 0 14 0;
#X connect 14 0 13 1;
#X connect 14 0 15 0;
#X connect 15 0 2 0;
